<?xml version="1.0" encoding="UTF-8"?><svg id="uuid-72fb5400-3a66-485a-bb43-6a6baa128f99" xmlns="http://www.w3.org/2000/svg" viewBox="0 0 139.75 54.84">
<title>Aprilia logo - Brandlogos.net</title><rect width="139.75" height="54.84" style="fill:#e30613;"/><path d="M78.36,13.2h5.9v-5.63h-5.9v5.63ZM86.33,40.64h5.75V7.57h-5.75v33.07ZM94.15,40.64h5.9v-23.67h-5.9v23.67ZM94.15,13.2h5.9v-5.63h-5.9v5.63ZM127.36,10.55c-.14.06-.35.08-.62.08h-.59v-1.32h.56c.36,0,.63.04.79.13.17.09.25.27.25.53,0,.28-.13.47-.39.57M128.38,9.92c0-.46-.19-.78-.57-.93-.21-.09-.55-.13-1.01-.13h-1.29v3.68h.64v-1.44h.52c.35,0,.59.04.73.12.23.14.35.42.35.84v.41s.02.03.02.04c0,.01,0,.02,0,.04h.6l-.02-.04s-.02-.1-.03-.19c0-.1,0-.19,0-.27v-.27c0-.18-.07-.37-.2-.57-.13-.19-.35-.32-.63-.36.23-.04.41-.1.54-.18.24-.16.36-.4.36-.73M78.36,40.64h5.9v-23.67h-5.9v23.67ZM128.9,12.75c-.56.57-1.24.85-2.05.85s-1.48-.28-2.05-.85c-.56-.57-.84-1.25-.84-2.05s.28-1.48.84-2.04c.57-.57,1.25-.85,2.04-.85s1.48.28,2.05.85c.56.56.84,1.24.84,2.04s-.28,1.49-.84,2.05M129.23,8.33c-.66-.65-1.45-.98-2.38-.98s-1.71.33-2.37.98c-.65.65-.99,1.44-.99,2.37s.33,1.73.97,2.38c.65.66,1.45.99,2.38.99s1.72-.33,2.38-.99c.65-.66.98-1.45.98-2.38s-.33-1.71-.98-2.37M31.07,33.08c-.48,1.53-2.56,3.23-5.85,3.36-2.04.08-3.74-1.19-3.34-3.4.4-2.15,3.84-3.06,5.79-3.43,1.63-.31,2.55-.61,3.58-.88,0,0,.14,3.32-.18,4.35M37.09,34.82v-11.95c.04-5.59-5.85-6.64-10.47-6.64-6.03,0-9.4,1.75-9.99,7.77h5.92c.55-2.66,2.07-3.26,4.21-3.26s4.5.45,4.5,2.76c0,1.34-1.04,1.79-2.59,2.02-1.5.22-2.8.5-4.13.64-4.11.46-8.74,1.8-8.74,7.56,0,4.83,4.26,7.34,8.15,7.34,2.58,0,5.72-.88,7.15-3.03.17-.15.2-.02.22-.02.13.29.43,1.85.65,2.56h5.74c.1-.05.04-.21-.02-.32-.75-1.35-.57-3.55-.61-5.43M50.8,35.63c-4.44,0-5.58-3.55-5.58-7.28s1.14-7.42,5.53-7.42c3.7,0,5.2,3.45,5.2,7.42,0,3.49-1.38,7.28-5.15,7.28M52.14,15.67c-2.28,0-4.88.56-6.62,3.2-.08.12-.17.09-.18,0l-.25-1.92h-6.05v30.53h6.3v-10.38c1.49,2.27,2.92,3.82,6.51,3.82,6.98,0,10.36-5.58,10.36-12.56s-3.38-12.7-10.07-12.7M117.27,33.08c-.48,1.53-2.56,3.23-5.85,3.36-2.04.08-3.74-1.19-3.33-3.4.39-2.15,3.84-3.06,5.79-3.43,1.63-.31,2.55-.61,3.57-.88,0,0,.14,3.32-.18,4.35M123.29,34.82v-11.95c.03-5.59-5.85-6.64-10.47-6.64-6.03,0-9.4,1.75-9.99,7.77h5.92c.55-2.66,2.07-3.26,4.21-3.26s4.5.45,4.5,2.76c0,1.34-1.04,1.79-2.59,2.02-1.5.22-2.81.5-4.12.64-4.11.46-8.74,1.8-8.74,7.56,0,4.83,4.26,7.34,8.15,7.34,2.57,0,5.72-.88,7.15-3.03.17-.15.2-.02.22-.02.13.29.43,1.85.65,2.56h5.74c.1-.05.04-.21-.01-.32-.75-1.35-.57-3.55-.61-5.43M74.4,16.49c-2.01.21-3.13.86-4.16,2.44-.24.37-.51,1.01-.51,1.01l-.49-2.96h-5.79v23.6h6.06v-10.99c0-1.89,1.04-5,3.39-6.38,1.53-.9,2.93-.76,3.44-.56v-6.01c-.33-.2-.91-.26-1.95-.15" style="fill:#fff;"/></svg>