<?xml version="1.0" encoding="UTF-8"?><svg id="a" xmlns="http://www.w3.org/2000/svg" viewBox="0 0 123.9999 28">
<title>Benelli wordmark logo - Brandlogos.net</title><path d="M114.101,4.2144c0-2.3277,1.86-4.2144,4.155-4.2144s4.157,1.8867,4.157,4.2144-1.862,4.2135-4.157,4.2135-4.155-1.8867-4.155-4.2135Z"/><path d="M89.803,25.0953l-1.2244.6678c-.9397.4917-.7256,1.3163.1415,1.4744h9.7336c1.0455.0172,1.3313-1.1051.1415-1.5448l-.9396-.5424V.6696c-.1589-.633-.5297-.8074-1.2049-.457l-8.1908,3.9627c-.6201.4071-.3626,1.0848.0534,1.2618l1.3464.545c.2141.0636.0969.28.1433.2272v18.886Z"/><path d="M102.05,25.0953l-1.227.6678c-.9395.4917-.724,1.3163.143,1.4744h9.734c1.045.0172,1.332-1.1051.141-1.5448l-.94-.5424V.6692c-.158-.6326-.531-.807-1.205-.4565l-8.19,3.9627c-.6203.4071-.363,1.0848.053,1.2618l1.346.545c.215.0636.097.28.145.2272v18.886Z"/><path d="M122.288,9.0787c-.16-.6326-.533-.8074-1.207-.4574l-8.192,3.9631c-.62.4068-.361,1.0849.053,1.2623l1.347.545c.215.0631.097.28.143.2267v10.4769l-1.224.6679c-.94.4917-.726,1.3163.141,1.4739h9.734c1.046.0176,1.332-1.1046.141-1.5444l-.936-.5424V9.0787Z"/><path d="M14.0562,10.6835c-.2605.3105-1.3378.9131-2.7368.9131-.6973,0-1.3261.0039-1.3261-.7589v-5.6312c.2297-.941,2.7911-1.1067,3.6578-.1452.4602.5373.993,1.2094.9504,3.0905,0,1.0303.0135,1.9614-.5453,2.5317ZM14.1626,22.7276c-.3049.3792-1.2835.8667-2.1168.8667-1.0364-.0138-2.0004-.1615-2.0004-.996v-6.9703c.0882-.6081.8189-.7803,1.6674-.7949,1.0655.0287,1.5731.1434,2.4645.9817.9058,1.0398.7429,2.3153.8185,3.4405.0148,1.547-.4603,3.148-.8332,3.4723ZM2.0361,24.5172c.0395.56-.2453.6081-.2453.6081l-1.2774.6597c-.8089.4625-.627,1.4245.366,1.4847-.9522.0197,13.8598,0,13.8598,0,5.8327,0,8.1665-4.5816,8.1665-7.8164.0621-2.889-3.0633-5.9799-5.4328-6.0723-.0929.0108-.1823-.1962.0204-.2422,2.2106-.0601,4.7225-2.5042,4.7225-5.59-.0621-3.0686-2.29-6.1947-7.9842-6.4949H.7378c-1.0799-.0103-.8059,1.2476-.2449,1.4842,0,0,1.1081.5965,1.1341.6399.3226.2117.3769.0945.409.5622v20.7769Z"/><path d="M65.1165,27.2373h2.0517c1.0464.0172,1.3321-1.1046.1415-1.5444l-.9396-.5424v-11.7396c0-1.6642-.65-3.1883-1.6621-4.2311-.8324-.8881-2.4937-2.0099-4.8749-2.0099-2.4094.0696-3.5439.6047-5.0202,1.6152-.9223.6605-.8233.1679-.8428-.1194l-.0018-1.5813c-.0638-.5149-.6422-.7709-1.2179-.4617l-7.8148,3.7768c-.8602.4016-.6839,1.1222-.2653,1.3017l1.2583.5652c.2479.0734.2093.4179.2093.4179v12.4108l-1.3048.6683c-.9396.4913-.7247,1.3158.1424,1.4739h9.734c1.046.0172,1.3317-1.1046.1411-1.5444l-.9396-.5424-.0425-10.6955c.0755-2.3234,1.7563-2.6065,2.6842-2.6065,1.2384-.003,2.2166.5132,2.3174,2.6065v10.6401l-1.2254.6683c-.9396.4913-.7255,1.3158.1412,1.4739h7.3306Z"/><path d="M30.9093,14.9566c-.2188-1.4611.2753-4.4012,3.0981-4.7903,2.5731-.122,3.2578,1.9738,3.227,3.0453,0,.2212.0239.3097-.0573.3501l-5.7042,1.9991c-.3465.1534-.5636-.2362-.5636-.6042ZM42.4596,20.2317c-1.8137,1.5509-3.8865,2.795-5.5839,2.7233-2.4693-.0159-4.3138-1.4357-4.8409-3.0819-.0278-.0592-.0356-.1597.0795-.1881.1241.0559,11.5494-4.1229,11.5494-4.1229.3751-.2431.3508-.4153.3738-.9036-.1819-2.4338-3.5036-8.2127-9.9546-7.9422-5.4345.0601-9.922,4.8294-9.9432,10.6101-.1703,4.1809,2.5084,10.4129,10.1543,10.6736,4.738.003,8.7527-3.1008,10.2854-6.2376.3708-1.4817-1.521-2.2496-2.1198-1.5307Z"/><path d="M74.7109,14.9566c-.2211-1.4611.2752-4.4012,3.0971-4.7903,2.5718-.122,3.2579,1.9738,3.2266,3.0453,0,.2212.0243.3097-.0569.3501l-5.705,1.9991c-.3447.1534-.5618-.2362-.5618-.6042ZM86.2594,20.2317c-1.8115,1.5509-3.8857,2.795-5.583,2.7233-2.4693-.0159-4.313-1.4357-4.8418-3.0819-.0269-.0592-.0348-.1597.0816-.1881.122.0559,11.5481-4.1229,11.5481-4.1229.3752-.2431.3496-.4153.3752-.9036-.1824-2.4338-3.5049-8.2127-9.9559-7.9422-5.4358.0601-9.9212,4.8294-9.9442,10.6101-.1684,4.1809,2.5089,10.4129,10.1561,10.6736,4.7372.003,8.7509-3.1008,10.2833-6.2376.3721-1.4817-1.5189-2.2496-2.1194-1.5307Z"/></svg>