<?xml version="1.0" encoding="UTF-8"?><svg id="Layer_1" xmlns="http://www.w3.org/2000/svg" viewBox="0 0 800 799.98"><defs><style>.cls-1,.cls-2{fill:#fff;}.cls-1,.cls-2,.cls-3,.cls-4{fill-rule:evenodd;}.cls-2{stroke:#252324;stroke-linecap:round;stroke-linejoin:round;stroke-width:8.27px;}.cls-3{fill:#0091c9;}.cls-4{fill:#181818;}</style></defs><g id="Layer_1-2"><path id="path10" class="cls-2" d="M795.86,399.99c0-218.63-177.22-395.86-395.85-395.86-218.63,0-395.87,177.23-395.87,395.86s177.24,395.85,395.87,395.85,395.85-177.22,395.85-395.85h0Z"/><path id="path12" class="cls-4" d="M786.31,399.99c0-213.36-172.96-386.31-386.3-386.31S13.69,186.63,13.69,399.99s172.96,386.31,386.32,386.31,386.3-172.96,386.3-386.31h0Z"/><path id="path14" class="cls-1" d="M203.25,201.47c-2.87,3.59-5.74,7.18-8.61,10.76-7.89,9.86-15.79,19.71-23.68,29.57-.04.04-.25.37-.3.33-.41-.32-.81-.65-1.22-.97-2.15-1.72-4.29-3.43-6.44-5.16-3.72-2.98-7.45-5.96-11.17-8.94,7.16-8.94,14.31-17.88,21.47-26.82,3.49-4.35,6.97-8.71,10.46-13.06,2.5-3.12,5.65-5.34,9.8-5.47,4.97-.16,9.31,2.74,11.42,7.15,1.77,4.28,1.17,8.99-1.73,12.61h0ZM136.12,214.49c-4.54-3.64-9.09-7.28-13.62-10.91-1.74-1.39-3.46-2.78-5.2-4.16-.04-.05,1.78-2.28,1.91-2.43,8.46-10.57,16.92-21.15,25.38-31.71,2.23-2.79,4.23-5.76,7.66-7.18,4.68-1.93,10.18-.69,13.57,3.04,2.74,3.03,3.65,7.14,2.76,11.08-1.01,3.5-3.49,6.08-5.72,8.86-4.45,5.56-8.91,11.13-13.36,16.69-4.46,5.58-8.92,11.15-13.39,16.72h0ZM232.83,182.85c-1.48-10.32-7.69-18.99-17.23-23.33-9.56-4.34-20.68-2.71-29.12,3.26-.69.49-1.32,1.08-1.97,1.6,1.39-4.77,1.82-9.59.63-14.48-1.16-4.77-3.66-9.17-7.18-12.59-7.15-6.98-18.01-9.28-27.39-5.77-4.41,1.65-8.34,4.48-11.29,8.16-1.67,2.09-3.35,4.18-5.02,6.28-8.76,10.93-17.51,21.86-26.26,32.8-7.52,9.38-15.03,18.77-22.54,28.15-.5.62-.99,1.24-1.48,1.86-.04.04.96.8,1.03.85,2.92,2.34,5.83,4.67,8.75,7.01,11.03,8.83,22.05,17.65,33.08,26.49,10.9,8.74,21.83,17.48,32.75,26.23,2.78,2.23,5.56,4.45,8.35,6.68.11.11.76.75.88.61.55-.7,1.1-1.39,1.65-2.07,7.49-9.37,14.99-18.73,22.48-28.08,8.98-11.21,17.96-22.43,26.94-33.65,4.64-5.79,9.76-11.25,11.96-18.51,1.13-3.74,1.32-7.64.96-11.5h0Z"/><path id="path16" class="cls-1" d="M641.45,399.99c0-133.35-108.1-241.44-241.44-241.44s-241.45,108.09-241.45,241.44,108.1,241.44,241.45,241.44,241.44-108.1,241.44-241.44h0Z"/><path id="path18" class="cls-3" d="M400,170.79c-125.12,3.25-225.96,104.09-229.2,229.21h229.2v-229.21Z"/><path id="path20" class="cls-3" d="M400,629.21c125.14-3.26,225.97-104.09,229.22-229.22h-229.22v229.22Z"/><polygon id="polygon22" class="cls-1" points="727.99 230.18 714.16 206.46 657.6 232.4 697.81 179.59 680.21 157.61 619.87 185.29 657.57 135.78 637.44 117.09 572.12 202.9 592.24 221.58 663.88 188.73 616.14 251.43 629.98 275.15 727.99 230.18"/><polygon id="polygon24" class="cls-1" points="426.16 33.79 400.01 110.25 373.84 33.79 337.62 37.82 333.6 146.47 361.78 142.45 364.47 70.01 389.94 142.45 410.06 142.45 435.54 70.01 438.23 142.45 466.4 146.47 462.37 37.82 426.16 33.79"/></g></svg>