<?xml version="1.0" encoding="UTF-8"?><svg id="Layer_1" xmlns="http://www.w3.org/2000/svg" viewBox="0 0 438.24 80.82"><defs><style>.cls-1{fill:#e30520;}</style></defs><path class="cls-1" d="M52.38,1.98H16.33L0,78.82h37.85c23.61,0,41.76-14.34,46.69-37.57,4.85-22.81-1.43-39.27-32.16-39.27M53.24,40.4c-1.58,7.46-3.38,12.9-6.08,16.1-2.57,3.09-5.82,4.9-10.71,4.9h-2.97l8.93-42h2.98c4.88,0,7.37,1.81,8.63,4.9,1.34,3.2.82,8.63-.77,16.1"/><path class="cls-1" d="M143.01,1.98l-10.59,49.82c-1.29,6.06-4.66,8.41-7.85,8.41s-5.56-2.34-4.27-8.41L130.89,1.98h-30.42l-10.86,51.09c-3.93,18.5,7.39,27.74,30.59,27.74s38.44-9.24,42.37-27.74L173.42,1.98h-30.42Z"/><path class="cls-1" d="M217.44,50.38c-2.16,8.14-5.31,10.49-9.24,10.49-7.65,0-6.43-8.75-3.93-20.47,2.62-12.37,5.1-20.47,12.96-20.47,3.71.06,6.53,1.77,5.1,10.49h27.81c4.69-22.55-9.99-30.42-29.31-30.42-25.95,0-43.63,16.16-47.97,40.08-5.18,24.34,3.78,40.72,30.68,40.72,19.01,0,37.86-9.25,42.35-30.42h-28.45Z"/><path class="cls-1" d="M279.33,1.98l-40.89,76.82h29.13l5.71-12.36h22l.35,12.36h31.48L318.77,1.98h-39.44ZM294.8,47.72h-12.97l12.87-28.99h.21l-.11,28.99Z"/><polygon class="cls-1" points="402.08 1.98 333.8 1.98 329.42 22.58 348.35 22.58 336.4 78.82 366.82 78.82 378.77 22.58 397.69 22.58 402.08 1.98"/><polygon class="cls-1" points="407.82 1.98 391.48 78.82 421.9 78.82 438.24 1.98 407.82 1.98"/></svg>