<?xml version="1.0" encoding="UTF-8"?><svg id="uuid-065f349e-e29a-4ffc-a8bc-1c9cf8db1f7a" xmlns="http://www.w3.org/2000/svg" viewBox="0 0 301.17 235.41">
<title>Harley-Davidson logo - Brandlogos.net</title><path d="M153.53,1.57c26.72,19.29,65.75,31,95.97,31.69l3.17.25v40.05h48.5v87.01h-29.81l-2.93,2.98-7.3,6.48c-32.77,29.09-78.34,64.04-109.36,65.38h-.13s-.13,0-.13,0c-23.8-.79-63.95-24.46-110.14-64.94l-6.99-6.14-3.59-3.74H0v-87.04h49.54v-40.1l3.22-.15c39.23-1.84,69.04-11.64,96.67-31.8l1.97-1.51,2.13,1.57Z" style="fill:#fff;"/><path d="M151.4,4.27c26.8,20.78,63.26,29.71,97.83,32.4v28.34c-7.32-.37-13.27,7.3-13.28,11.97h61.8s0,80.17,0,80.17h-57.3c1.36,7.43,11.27,10.7,18.41,10.32-38.09,33.81-80.09,63.36-107.24,64.52-24.75-.82-66.58-27.8-108.01-64.1,17.18.28,18.7-10.75,18.7-10.75l-58.9.04v-80.22h61.61c-.3-5.87-5.68-11.33-12.1-11.96v-28.3c36.73-1.72,68.42-10.52,98.48-32.44" style="fill:#231f20;"/><path d="M242.1,42.83c0,5.05,0,11.98,0,17.74-6.76,1.4-13.59,10.58-13.58,16.41-3.91,0-5.56,0-5.56,0,.54-11.08,6.69-16.46,13.61-20.13,0-3.5,0-5.39.04-8.83-29.49-.73-63.86-13.4-85.2-27.81-19.41,13.08-55.69,27.06-85.48,27.81,0,1.94,0,5.8,0,8.84,7.78,3.96,12.35,11.71,12.83,20.11-3.03,0-4.22,0-5.86,0-1.26-8.77-6.28-13.46-12.44-16.91,0-5.6,0-11.06-.03-16.88,33.66-1.9,71.56-14.92,90.98-29.97,18.61,15.31,57.62,27.11,90.7,29.63" style="fill:#f48120;"/><path d="M164.55,35.38l-.05,7.52-9.52-4.67v38.75h-7.44c-.01-12.7,0-38.75,0-38.75l-9.27,4.59.05-7.37s10.77-5.39,13.08-7.12c2.47,1.81,13.15,7.06,13.15,7.06" style="fill:#f48120;"/><path d="M103.47,76.97c0-3.73.17-9.96-.71-11.01-1.85,3.35-3.44,7.48-4.97,10.59-1.58-3.14-3.2-6.81-5.19-9.4l-.2,9.82h-6.77v-24.69c3.67-.65,4.76-.94,6.68-1.28l5.31,11.47,5.58-13.66c1.81-.52,1.72-.52,6.95-1.59v29.73h-6.67Z" style="fill:#f48120;"/><path d="M137.6,46.06c.02,10.79-.01,21.02,0,25.17-.06,5.83-2.05,5.68-11.98,5.75-8.17.06-10.84.18-10.93-8.01v-17.21c.13-6.52,1.85-6.19,9.24-9.87,11.56-5.62,13.35-3.74,13.67,4.16M131.14,49.06c0-4.02-8.49.87-9.05,1.44-1.71,1.74-1.29,12.99-1.24,17.72.01,1.06.55,2.29,1.87,2.28,2.13-.01,5.28.06,7.04-.02.81-.04,1.37-.35,1.38-1.52,0-1.25,0-19.89,0-19.89" style="fill:#f48120;"/><path d="M188.84,49.75v20.73c0,6.49-2.3,6.49-11.33,6.49-8.53,0-12.28,0-12.29-6.49v-25.74c0-9.37,7.58-5.36,13.34-3.08,5.44,2.16,10.27,3.05,10.27,8.08M177.3,48.42c-3.14-.92-5.23-1.48-5.24,1.97-.01,5.86,0,15.57,0,15.57,0,5.02,2.6,4.53,5.42,4.52,1.96,0,4.82.45,4.8-2.57.02-6.24.02-8.59.01-15.28,0-3.6-3-3.63-5-4.21" style="fill:#f48120;"/><path d="M215.47,53.14c3.25,3.58,2.49,12.88-.33,13.85,2.98,2.23,2.33,9.99,2.33,9.99h-6.38c-.01-7.76-1.51-7.88-5.25-7.87-2.71-.05-1.9,0-5.12,0v7.87h-6.45v-29.37c8.9,1.94,19.43,3.6,21.19,5.53M200.78,55.77l.04,6.79c4.2.21,5.27.26,8.2.43,2.36.04,1.8-4.62,1.15-5.46-.54-.69-5.87-1.37-9.39-1.76" style="fill:#f48120;"/><rect x="10.91" y="84.48" width="279.67" height="64.87" style="fill:#f48120;"/><path d="M76.75,157.15c-.09,6.75-2.99,11.53-7.22,15.09,27.29,24.45,64.16,45.28,82.29,46.48,18.41-1.2,54.26-23.4,81.67-46.65-5.51-4.84-7.08-9.01-7.1-14.92,2.62,0,3.73,0,5.43.02.47,7.07,7.98,12.8,11.11,14.13-40.26,33.23-65.7,49.45-91.49,52.86-26.8-3.75-52.75-19.79-91.73-52.56,5.43-2.4,10.89-8.04,10.87-14.45h6.16Z" style="fill:#f48120;"/><path d="M258.34,160.1c.59.59.88,1.31.88,2.16s-.3,1.57-.88,2.17c-.59.59-1.31.9-2.16.9s-1.56-.3-2.16-.9c-.59-.6-.88-1.32-.88-2.17s.3-1.56.89-2.16c.59-.59,1.31-.9,2.15-.9s1.56.3,2.16.9M258.68,159.76c-.69-.69-1.52-1.03-2.5-1.03s-1.8.34-2.5,1.03c-.69.69-1.03,1.53-1.03,2.5s.34,1.82,1.03,2.51c.69.7,1.52,1.04,2.5,1.04s1.82-.34,2.5-1.04c.69-.69,1.04-1.53,1.04-2.51s-.35-1.81-1.04-2.5M256.7,162.1c-.14.06-.36.08-.65.08h-.62v-1.41h.59c.37,0,.65.05.82.14.18.1.26.29.26.57s-.13.5-.4.61M254.75,164.19h.69v-1.53h.54c.37,0,.62.04.76.12.24.15.37.45.37.89v.44s.02.03.02.04c0,.01,0,.03.01.03h.64l-.02-.05s-.03-.1-.04-.2c0-.11,0-.2,0-.29v-.28c0-.2-.07-.4-.21-.61-.14-.2-.37-.33-.67-.37.24-.04.43-.11.57-.19.25-.16.38-.42.38-.77,0-.49-.2-.81-.61-.98-.23-.09-.57-.13-1.06-.13h-1.36v3.88Z" style="fill:#231f20;"/><rect x="17.06" y="89.97" width="268.06" height="54.28" style="fill:#231f20;"/><path d="M238.34,102.77v8.02l-6.12-.04c0-5.03,0-8.31-2.42-8.15-2.06,0-1.72,2.4-1.73,4.21,0,5.35,2.76,6.35,5.56,8.44,3.75,2.81,5.03,4.6,5.08,12.53,0,5.8-1.97,10.33-8.33,10.33-7.47,0-8.49-3.37-8.48-16.1.98.01,4.9.01,6.19.02,0,2.09,0,5.12-.01,6.21,0,1.21-.2,3.65,2.33,3.66,1.53.01,2.11-1.26,2.11-4.88,0-4.14-1.21-5.42-2.59-6.47-2.74-2.07-7.95-4.12-7.94-10.49,0-5.75-.91-14.46,8.48-14.36,5.56.04,7.9,3.14,7.89,7.07" style="fill:#fff;"/><path d="M31.38,112.4h4.45v-15.63h6.12v41h-6.16v-17.13c-1.68.01-2.53.01-4.38,0v17.09s-6.16,0-6.16,0v-41h6.13v15.67Z" style="fill:#fff;"/><path d="M89.46,130.89c2.23.02,3.9.02,6.12,0v6.85h-12.67v-40.96h6.55v34.11Z" style="fill:#fff;"/><path d="M109.64,103.23h-6.2v9.56c2.47.02,4.01.02,6.16,0v7.18h-6.16v10.87c2.3.02,3.79.02,6.11,0v6.89h-12.62v-40.96h12.7v6.45Z" style="fill:#fff;"/><path d="M116.75,96.75c.81,4.35,1.53,8.62,2.83,13.4,1.39-4.81,1.73-8.83,3.1-13.38h6.04c-1.68,8.65-3.94,16.12-6.14,24.13.01,6.57.01,10.12.01,16.48h-6.16c.02-6.74-.02-11.48-.01-16.61-2.06-8.07-4.39-15.93-6.05-24.01,3.01-.02,4.42-.02,6.39-.02" style="fill:#fff;"/><path d="M182,96.43c.74,7.97,1.56,16.33,2.42,24.26,0,0,1.99-17.11,2.97-24.26h6.08l-5.7,40.96h-6.55l-5.44-40.96h6.21Z" style="fill:#fff;"/><polygon points="200.8 137.43 194.61 137.43 194.61 96.43 200.78 96.43 200.8 137.43" style="fill:#fff;"/><path d="M267.37,96.43c1.35,6.26,2.61,12.66,3.97,18.78l-.25-18.78h6.16v40.64h-7.23c-1.39-7.64-2.71-14.81-4.22-22.5l.19,22.5h-6.48v-40.64h7.86Z" style="fill:#fff;"/><path d="M257.12,104.21c0,3.9,0,26.28,0,26.28,0,4.29-4.16,8.02-8.42,7.94-3.56-.06-8-1.98-7.99-8.02.01-5.83,0-15.34,0-26.35,0-7.9,5.03-8.62,8.53-8.65,3.2-.03,7.88,1.22,7.88,8.8M246.53,104.3c-.03,5.24.01,15.04.02,24.36,0,3.52,4.31,4.5,4.31.6,0-9.42,0-22.61,0-24.96.01-2.73-4.32-2.81-4.33,0" style="fill:#fff;"/><path d="M152.36,96.76c3.19,0,5.41,2.26,5.42,7.05,0,8.7.04,19.24.05,26.64-.04,3.36-2.33,7.28-7.35,7.27-2.23.01-5.23.01-8.8.01v-40.96c4.74-.01,6.53-.01,10.69-.01M147.87,102.97v27.88c.93.01.85.01,2.21,0,.86-.04,1.49-.81,1.51-1.92-.02-5.03-.06-22.4-.06-24,0-2.8-3.66-1.97-3.66-1.97" style="fill:#fff;"/><path d="M213.21,96.43c3.12,0,6.66,1.82,6.64,7.23v27.08c.01,4.41-2.64,6.69-7.88,6.68-2.95,0-6.28,0-8.49,0v-41c2.6,0,6.23,0,9.73,0M212.03,102.93c-1.1.03-2.01,0-2.01,0v27.92c3.62.01,4.05-.16,4.06-2,0,0,.04-16.68,0-23.71,0-1.21-1.12-2.19-2.05-2.21" style="fill:#fff;"/><path d="M73.85,96.75c5.97,0,6.65,7.01,6.65,11.32,0,1.96.14,5.63-3.06,8.84,2.01,1.8,3.07,3.23,3.11,7.71,0,4.27,0,7.9-.01,13.15h-3.99c-.74-.04-2.48-.6-2.47-1.8-.02-2.58-.01-8.11,0-11.16-.01-2.54-1.51-2.79-2.94-2.8h-1.1v15.76h-6.63l.08-41c2.67-.01,3.53-.02,10.36-.02M70,103.27v10.87h2.42c.62-.01,1.34-.48,1.33-2.11.06-1.88.03-4.72.04-6.47-.02-2.28-1.39-2.28-3.78-2.3" style="fill:#fff;"/><path d="M177.54,137.39h-5.78c-.68-3.31-1.01-6.53-1.57-9.9h-4.38l-1.2,9.9h-5.85c1.19-13.55,3.52-27.47,4.89-40.96h8.8l5.1,40.96ZM167.89,105.22l-1.36,14.66h2.76c-.21-4-.59-10.58-1.4-14.66" style="fill:#fff;"/><path d="M57.3,96.78c1.61,13.26,3.03,26.57,4.5,40.96h-5.69c-.48-3.63-.95-7.47-1.27-9.82h-4.21l-1.15,9.86h-5.83c1.43-13.49,2.88-26.98,4.2-41h9.44ZM52.32,105.1l-.73,14.79h2.38c-.44-5.2-.78-9.52-1.65-14.79" style="fill:#fff;"/><rect x="127.69" y="114.87" width="11.27" height="5.1" style="fill:#fff;"/><polygon points="103.59 157.19 111.8 157.19 115.91 168.45 116.4 168.45 121.41 157.19 129.62 157.19 119.21 177.42 119.21 199.12 111.7 194.72 111.7 177.52 103.59 157.19" style="fill:#f48120;"/><path d="M86.47,178.69l17.67,11.64v-8.3l-.25-1.07-10.59-6.12-.63-1.36c-.44-.21-.74.33-.74-.18v-8.28c0-.71.6-1.29,1.35-1.29h7.92v-6.54s-11.35-.02-11.35-.02c-3.1,0-5.61,2.39-5.61,5.34v11.88c0,1.76.86,3.32,2.23,4.3" style="fill:#f48120;"/><path d="M149.84,204.56l-7.2-2.69-2.71-1.01c-.93-.35-1.59-1.21-1.59-2.22v-32.53c0-1.31,1.12-2.38,2.5-2.38h9.01v-6.54h-13.62c-3.1,0-5.61,2.39-5.61,5.34v38.48c0,1.75.89,3.32,2.26,4.29h.04c1.17,1.03,4.31,2.59,16.92,6.69v-7.44Z" style="fill:#f48120;"/><path d="M161.25,157.19h-7.71v54.46c5.33-.63,11.45-2.45,18.03-5.16v-7.09s-10.32,3.25-10.32,3.25v-45.46Z" style="fill:#f48120;"/><path d="M191.68,163.73v-6.54h-12.72c-3.1,0-5.61,2.4-5.61,5.34v35.02c.16,7.4,6.78,4.19,7.18,3.94,1.65-1.03,11.24-6.94,11.24-6.94v-7.88l-8.16,4.63c-3.15,1.82-2.55-2.29-2.55-2.29v-9.59h8.11v-6.3h-8.11v-6.02l-.05-1.05c0-1.29,1.1-2.34,2.45-2.34h8.21Z" style="fill:#f48120;"/><path d="M204.39,163.73c-.66,0-1.2.52-1.2,1.15v1.58c0,.63.54,1.15,1.2,1.15h8.29c2.39,0,4.33,1.78,4.33,3.99v5.75c-.5,3.34-21.37,14.85-21.37,14.85l-.05-7.83,8.76-4.97c8.96-5.05,2.15-4.91,2.15-4.91h-6.86c-2.26,0-4.1-1.71-4.1-3.82v-9.66c0-2.12,2.03-3.85,4.53-3.85l1.38.05h14.96v6.54h-12.01Z" style="fill:#f48120;"/></svg>