<svg xmlns="http://www.w3.org/2000/svg" viewBox="0 0 221.26 77.7"><title>Indian Motorcycle logo - Brandlogos.net</title><polygon points="23.3 77.52 20.04 77.52 20.04 71.17 17.14 74.8 16.77 74.8 13.87 71.17 13.87 77.52 10.6 77.52 10.6 66.45 13.51 66.45 16.95 70.63 20.4 66.45 23.3 66.45 23.3 77.52" style="fill:#862633"/><path d="M320.26,417.23a5.32,5.32,0,0,1-.73,2.9,4.69,4.69,0,0,1-2.18,2,6.49,6.49,0,0,1-3.45.73,8.86,8.86,0,0,1-3.45-.73,4.62,4.62,0,0,1-2-2.18,5.47,5.47,0,0,1,0-5.44,5.27,5.27,0,0,1,2-2,6.49,6.49,0,0,1,3.45-.73,6.06,6.06,0,0,1,2.72.54,7.49,7.49,0,0,1,2,1.27,3.76,3.76,0,0,1,1.09,1.81c.54.18.54.91.54,1.81m-3.27,0a2.3,2.3,0,0,0-.18-1.09c-.18-.36-.36-.54-.54-.91a1.54,1.54,0,0,0-.91-.54,2.69,2.69,0,0,0-1.27-.18,2.26,2.26,0,0,0-2,.73,2.73,2.73,0,0,0,2,4.72,5.3,5.3,0,0,0,1.63-.36,1.49,1.49,0,0,0,.91-.91,5.61,5.61,0,0,0,.36-1.45" transform="translate(-273.37 -345.15)" style="fill:#862633"/><polygon points="67.76 69.17 63.59 69.17 63.59 77.52 60.32 77.52 60.32 69.17 56.33 69.17 56.33 66.45 67.76 66.45 67.76 69.17" style="fill:#862633"/><path d="M362.9,417.23a5.32,5.32,0,0,1-.73,2.9,5.77,5.77,0,0,1-2.18,2,6.49,6.49,0,0,1-3.45.73,8.86,8.86,0,0,1-3.45-.73,6.25,6.25,0,0,1-2.18-2.18,5.47,5.47,0,0,1,0-5.44,4.69,4.69,0,0,1,2.18-2,7.36,7.36,0,0,1,3.45-.73,6.06,6.06,0,0,1,2.72.54,7.49,7.49,0,0,1,2,1.27,3.76,3.76,0,0,1,1.09,1.81c.36.18.54.91.54,1.81m-3.45,0a2.3,2.3,0,0,0-.18-1.09c-.18-.36-.36-.54-.54-.91a1.54,1.54,0,0,0-.91-.54,2.69,2.69,0,0,0-1.27-.18,2.89,2.89,0,0,0-2.18.73,3.11,3.11,0,0,0,0,4,2.89,2.89,0,0,0,2.18.73,5.3,5.3,0,0,0,1.63-.36,1.49,1.49,0,0,0,.91-.91,2.44,2.44,0,0,0,.36-1.45" transform="translate(-273.37 -345.15)" style="fill:#862633"/><path d="M384.68,422.67h-3.63l-.91-2a6.53,6.53,0,0,0-.91-1.63c-.36-.36-.36-.54-.54-.54a7.86,7.86,0,0,0-.91-.18h-.36v4.17h-3.27V411.6h5.63a3.87,3.87,0,0,1,2.18.54,8.38,8.38,0,0,1,1.27,1.27,2.18,2.18,0,0,1,.36,1.45,3.42,3.42,0,0,1-.36,1.45,1.81,1.81,0,0,1-.73.91c-.18.18-.54.36-.73.54a4,4,0,0,1,.91.73c.18.36.54.91.91,1.63ZM380.14,415a1.1,1.1,0,0,0-.54-1.09,3.62,3.62,0,0,0-1.63-.36h-.73v2.72H378c.73,0,1.45,0,1.63-.36.36,0,.54-.36.54-.91" transform="translate(-273.37 -345.15)" style="fill:#862633"/><path d="M405,421.76c-.54.18-.91.36-1.45.54s-.91.18-1.45.36h-1.45a10.71,10.71,0,0,1-2.54-.36,7,7,0,0,1-2-1.09,4.63,4.63,0,0,1-1.27-1.81,5,5,0,0,1-.36-2.36,5.8,5.8,0,0,1,.54-2.54,4.61,4.61,0,0,1,1.45-1.81,4.33,4.33,0,0,1,2-1.09,9.19,9.19,0,0,1,2.36-.36,12.38,12.38,0,0,1,4.17.91V415c-.54-.36-1.09-.54-1.63-.91a3,3,0,0,0-1.81-.36,6.45,6.45,0,0,0-1.81.36,1.92,1.92,0,0,0-1.27,1.09,2.93,2.93,0,0,0-.54,1.63,3.42,3.42,0,0,0,.36,1.45,2.44,2.44,0,0,0,1.27,1.09,5.37,5.37,0,0,0,1.81.36,3.54,3.54,0,0,0,1.45-.18,3.36,3.36,0,0,1,1.27-.36c.36,0,.73-.36,1.09-.54l-.18,3.08Z" transform="translate(-273.37 -345.15)" style="fill:#862633"/><polygon points="153.77 66.45 149.41 72.44 149.41 77.52 146.15 77.52 146.15 72.44 141.79 66.45 145.24 66.45 147.6 69.9 150.14 66.45 153.77 66.45" style="fill:#862633"/><path d="M446.74,421.76c-.54.18-.91.36-1.45.54s-.91.18-1.45.36h-1.45a10.71,10.71,0,0,1-2.54-.36,7,7,0,0,1-2-1.09,4.63,4.63,0,0,1-1.27-1.81,5,5,0,0,1-.36-2.36,5.8,5.8,0,0,1,.54-2.54,4.61,4.61,0,0,1,1.45-1.81,4.33,4.33,0,0,1,2-1.09,9.19,9.19,0,0,1,2.36-.36,12.38,12.38,0,0,1,4.17.91V415c-.54-.36-1.09-.54-1.63-.91a3,3,0,0,0-1.81-.36,6.45,6.45,0,0,0-1.81.36,1.92,1.92,0,0,0-1.27,1.09,2.93,2.93,0,0,0-.54,1.63,3.42,3.42,0,0,0,.36,1.45,2.44,2.44,0,0,0,1.27,1.09,5.37,5.37,0,0,0,1.81.36,3.54,3.54,0,0,0,1.45-.18,3.36,3.36,0,0,1,1.27-.36c.36,0,.73-.36,1.09-.54l-.18,3.08Z" transform="translate(-273.37 -345.15)" style="fill:#862633"/><polygon points="192.96 77.52 184.62 77.52 184.62 66.45 188.06 66.45 188.06 74.8 192.96 74.8 192.96 77.52" style="fill:#862633"/><polygon points="212.38 77.52 204.03 77.52 204.03 66.45 212.2 66.45 212.2 68.63 207.3 68.63 207.3 70.63 212.02 70.63 212.02 72.98 207.3 72.98 207.3 75.34 212.38 75.34 212.38 77.52" style="fill:#862633"/><path d="M426.41,368.78s4.54,0,5.44-3.81c0,0,1.09-3.45-4.17-3.27,0,0-5.08.36-5.63,4.54.18,0,0,2.54,4.35,2.54" transform="translate(-273.37 -345.15)" style="fill:#940731"/><path d="M335.32,346.46a37.8,37.8,0,0,0-7.08,2.54,18.33,18.33,0,0,0-5.63,4.35c-10.16.36-17.42,2-21.41,5.63a7.93,7.93,0,0,0-2.72,8.17c.73,2.72,3.27,5.08,7.44,5.63h2.72a3.09,3.09,0,0,0,1.27-.18c.54,0,.91-.18,1.45-.18.54-.18.91-.18,1.45-.36a5.43,5.43,0,0,0,1.45-.73,3.25,3.25,0,0,0,1.27-.91l1.09-1.09a6.37,6.37,0,0,0,.91-1.45c-.18,0-6.53,2-9.8,0-2.18-1.45-1.45-3.81-.91-4.9a10.39,10.39,0,0,1,5.08-3.81,22.51,22.51,0,0,1,8-1.81c0,.18,0,.18-.18.36-.54,1.81-3.27,11.07,6.71,16.15l-.18.18a46.36,46.36,0,0,1-8.35,13.06,33.45,33.45,0,0,1-13.61,9.8,28.81,28.81,0,0,1-12,1.27,9.48,9.48,0,0,1-3.81-1.27c-5.26-2.36-6-6.35-6.17-8v-.73c0-4.35,3.63-6.35,6.17-7.26a12.68,12.68,0,0,1,6.17-.36h0a3.12,3.12,0,0,1,2.36,2.36v.36h0a3.36,3.36,0,0,1-2.72,2.36,22.25,22.25,0,0,1-4.72.54,12.3,12.3,0,0,0,7.44,3.45c2.72.36,6.35,0,8.89-2.18,3.27-2.9,1.81-10.89-13.61-11.07-12.7-.18-18.51,6.53-18.87,11.43a11.7,11.7,0,0,0,3.45,9.62c1.63,1.63,4.9,3.63,9.62,4.9a30.79,30.79,0,0,0,7.62,1.09,50.22,50.22,0,0,0,7.26-.18,47.76,47.76,0,0,0,11.79-2.9,41.47,41.47,0,0,0,16.88-13.43,88.82,88.82,0,0,0,7.08-11.25s5.08.18,8.89-2.36a8.75,8.75,0,0,0,1.81-1.45c.18-.18.36-.36.36-.54a9.16,9.16,0,0,0,1.45-2.36c2-4.72-1.09-8.17-2.54-9.44-.36-.36-.73-.54-1.09-.91l.36-.73a.18.18,0,0,1,.18-.18l.18-.18c2.72-3.81,5.44-6.17,8.89-9.25a39.86,39.86,0,0,1,3.27-2.54h0c-10-1.09-18-.54-23.59.73m-4.72,20.14a12.31,12.31,0,0,0-1.09,1.63,1.83,1.83,0,0,1-.54-.18h-.18c-.91-.54-2.72-2.18-2.18-6a10.74,10.74,0,0,1,1.45-4.35,24.51,24.51,0,0,1,8.53,1.27,49.4,49.4,0,0,0-6,7.62m15.79.91a6,6,0,0,1-6.35,3.08c1.27-2.18,3.08-5.44,4.9-8.35,1.45,1.27,2.54,3.08,1.45,5.26m-6.9-11.79a45.94,45.94,0,0,0-8.17-1.63c-.36,0-.54-.18-.91-.18,5.44-5.08,13.06-5.44,17.42-5.26a55.1,55.1,0,0,0-8.35,7.08" transform="translate(-273.37 -345.15)" style="fill:#862633"/><path d="M484.48,392.55l8.71-13.25c5.08-7.8-4.9-7.44-4.9-7.44a30.32,30.32,0,0,0-9.44,2c-1.63-2.54-4.9-2-4.9-2-6.35,0-15.79,11.79-15.79,11.79-1.81,2-7.8,8.89-7.8,8.89l-.73.54c-.54.54-1.45,1.27-1.45,1.27-.54.54-1.45.73-1.45.54-.36-.18.18-1.09.18-1.09l14.7-22.14h-9.25l-.91,1.45c-1.81-2-5.81-1.45-5.81-1.45-19.23,2.18-26.13,20.5-26.13,20.5-.54.36-1.45.91-1.45.91-2.18,1.45-3.27,1.81-4.17,1.63-1.45-.36-.54-1.81-.54-1.81l14.52-21.23H419l-8,11.79h0l-1.45,2.36c-1.63,2.18-3.45,4.35-3.45,4.35-3.45,3.81-5.63,5.26-6.53,4.9a1,1,0,0,1-.54-1.45l22.86-33.39h-9.44l-9.25,13.25c-1.81-2-5.81-1.45-5.81-1.45-19.05,2.18-26.31,21-26.31,21-4.54,3.08-5.44,2.18-5.63,1.63h0a1.09,1.09,0,0,1,.18-.73l9.25-14.33c5.08-7.8-4.9-7.44-4.9-7.44a30.32,30.32,0,0,0-9.44,2,4.91,4.91,0,0,0-4.54-2h-.18c-2.18.18-4.35,2-5.63,2.9-.54-.18-.73-.18-.91,0h-.18l-2.54,2.36-.91,1.09c-1.27,1.27-3.81,4-7.8,4h0c1.27,4.54,6.9,1.45,11.07-2.72V380a.18.18,0,0,1-.18.18.63.63,0,0,1-.18.36c-.18.18-.18.36-.36.54L334.6,400.89h9.62l9.8-14.15h0c2-.18,5.44-.91,6.71-4.17a8.19,8.19,0,0,1-2.36.18c-.54,0-1.45-.36-.54-2.18h0l.18-.36a4,4,0,0,1,1.63-1.81,5.21,5.21,0,0,1,4.72-.36c1.45.73.36,2.36,0,3.08-7.8,11.25-10.16,15.06-10.71,16.51,0,.18-.18.73-.18,1.09A2,2,0,0,0,354,400h0c1.27,1.45,4.54,1.45,4.54,1.45,4,.36,12.34-4.54,12.34-4.54,2.72,4.9,9.44,4.35,9.44,4.35a14.41,14.41,0,0,0,8.17-2.72c1.45,2.72,5.81,2.54,5.81,2.54a10.32,10.32,0,0,0,5.63-1.81l1.63-1.09c2.18,3.81,7.08,2.9,7.08,2.9,2.54,0,6.17-1.45,8.89-3.08a16.78,16.78,0,0,0,1.63-.91c2.72,4.9,9.44,4.35,9.44,4.35a14.41,14.41,0,0,0,8.17-2.72c1.45,2.72,5.81,2.54,5.81,2.54a11.37,11.37,0,0,0,5.44-1.63c.91-.54,1.63-1.09,2.18-1.45l1.63-1.45,2-2,10-11.61a14.47,14.47,0,0,1,2.72-2.9c1.63-.91,0,1.27,0,1.27l-13.61,19.78h9.62l9.07-13.06.73-1.09c2-.18,5.44-.91,6.71-4.17a8.19,8.19,0,0,1-2.36.18c-.54,0-1.45-.36-.54-2.18l.18-.18c.18-.36.54-.73.73-1.09h0a4.83,4.83,0,0,1,2.18-1.63h.18a4.27,4.27,0,0,1,3.63.18c1.45.73.36,2.36-.18,3.08h0c-6,8.53-8.71,12.7-9.8,14.88a12.5,12.5,0,0,0-.54,1.45,3.39,3.39,0,0,0,2,3.81c2.36,1.09,6.9-.54,9.25-1.45a21.94,21.94,0,0,0,7.44-5.44,3.8,3.8,0,0,0,.73-1.09,29.53,29.53,0,0,1-6.53,2.36c-2.72.54-1.45-2.18-.91-3.27h0m-86.19-12-1.09,1.09c-2,1.63-5.08.91-6.17.54v1.09a5.29,5.29,0,0,0,2.72,3.45c-.73,1.09-1.81,2.9-1.81,2.9-.36.36-.54.91-.91,1.27a9.09,9.09,0,0,1-1.27,1.45,7.89,7.89,0,0,1-1.27,1.09c-.36.36-.73.54-1.09.91l-1.09.54c-.36.18-.54.36-.91.36s-.54.18-.91.18a1.09,1.09,0,0,0-.73.18h-1.09c-3.63-.18-2-3.63-2-3.63,7.08-14.7,16.69-15.42,16.69-15.42,4,0,1.09,3.81.91,4h0m46.63,1.63h0c-1.81,1.09-4.35.54-5.44.18v.18h0a6,6,0,0,0,2.9,4.35h0l-.18.18-.73,1.27c-.18.18-.18.36-.36.54a6.52,6.52,0,0,1-1.27,1.81,4.89,4.89,0,0,1-1.27,1.45,7.89,7.89,0,0,1-1.27,1.09c-.36.36-.73.54-1.09.91-.36.18-.73.54-1.09.73s-.54.36-.91.54a1.64,1.64,0,0,1-.91.18c-.18,0-.54.18-.73.18h-1.09c-3.63-.18-2-3.63-2-3.63,7.08-14.7,16.51-15.42,16.51-15.42,3.45,0,1.09,3.27,1.09,3.27-.18.18-.36.36-.36.54l-1.27,1.27-.18.18h0c-.18-.18-.18,0-.36.18h0" transform="translate(-273.37 -345.15)" style="fill:#862633"/></svg>