<?xml version="1.0" encoding="UTF-8"?><svg id="Layer_1" xmlns="http://www.w3.org/2000/svg" viewBox="0 0 160.24 61.9"><defs><style>.cls-1{fill:#231f20;}.cls-1,.cls-2{fill-rule:evenodd;}.cls-2{fill:#f48120;}</style></defs><path class="cls-1" d="M7.94,56.15l1.37-3.01h4.11c1.92,0,2.19.27,1.64,1.37-.55.82-.82,1.1-1.1,1.37-.27.27-.82.27-1.92.27h-4.11ZM0,61.63h5.2l1.37-2.74h4.11c1.64,0,1.92.27,1.37,1.37l-.55,1.37h5.48l.82-1.92c.82-1.37,0-2.19-2.47-2.19h0c1.37-.27,1.92-.27,2.47-.55,1.37-.55,2.19-1.1,3.01-3.01.82-1.64.27-2.47-1.1-3.01-.82-.27-2.19-.27-4.38-.27H5.2L0,61.63h0Z"/><path class="cls-1" d="M40.27,57.52h-4.93l4.93-4.66v4.66h0ZM40.27,59.71l.27,1.92h5.48l-.82-10.96h-8.22l-11.23,10.96h5.75l1.64-1.92h7.12Z"/><path class="cls-1" d="M73.96,57.52l-.27.27c-.55,1.37-1.1,1.92-1.92,2.47-.82.55-2.47,1.1-4.11,1.37-.82,0-1.92.27-4.66.27-3.29,0-4.38-.27-5.2-.55-1.92-.55-2.19-1.37-1.64-3.01,0-.55.27-1.1.55-1.37l.27-.82.27-.55.27-.55c.82-1.64,1.64-2.74,3.29-3.29,1.37-.82,3.01-1.1,4.93-1.1h3.56c3.29,0,4.38,0,5.48.55,1.1.27,1.37,1.1.82,2.47q-.27.27-.55.82h-5.2c.55-1.1,0-1.37-2.74-1.37-1.92,0-2.74.27-3.29.82-.27.27-.55.55-1.1,1.37q0,.27-.27,1.1l-.55.82c-.82,1.64-.27,1.92,2.47,1.92s3.56-.27,4.11-1.37v-.27h5.48Z"/><polygon class="cls-1" points="87.11 61.63 81.9 61.63 87.11 50.67 92.58 50.67 87.11 61.63 87.11 61.63"/><path class="cls-1" d="M118.33,61.63h-9.31l-.82-4.66c-.55-2.46-.27-1.1-.55-3.83h-.27c-.55,1.37-.27.82-.55,1.64-.55.82-.82,1.64-1.1,2.47l-2.19,4.38h-5.2l5.2-10.96h9.04l.82,4.66c.55,2.47.55,1.37.82,3.83h.27l.27-.82v-.27l.55-1.1c.27-.55.55-1.1.82-1.92l1.92-4.38h5.48l-5.2,10.96h0Z"/><path class="cls-1" d="M149.83,55.6h-.27c-.27.55,0,.55-.27.82-.27.55-.55,1.37-.55,1.64-.82,1.64-1.92,2.47-3.56,3.01-1.64.55-3.29.82-7.67.82-3.83,0-5.2-.27-6.3-.82-1.37-.82-1.64-1.92-.55-3.83,0,0,.27-.55.27-.82,1.1-1.92,1.37-2.47,1.64-2.74,1.1-1.37,2.47-2.19,4.93-2.74,1.37-.27,2.74-.27,6.3-.27,2.74,0,4.11,0,4.93.27,2.19.27,2.47,1.1,1.64,3.29h-5.48c.27-1.1-.27-1.1-2.47-1.1-2.74,0-3.83,0-4.66.82-.27.27-.27.55-.55,1.1l-.27.55-.27.55c-.27,0-.27.55-.55,1.1-.82,1.64-.27,1.92,2.74,1.92s3.83-.27,4.38-1.37l.27-.27h-3.83l1.1-1.92h9.04Z"/><path class="cls-2" d="M6.57,47.94h21.37l5.48-13.15,9.86,13.15h46.29l14.24-13.42-2.19,13.15h18.08l14.79-12.87-1.92,12.87h19.45l8.22-36.7h-19.72l-15.89,14.24,3.01-14.24h-18.63l-20.54,20.82,8.49-24.93h30.68l1.64-6.85H47.39l-2.46,6.57,30.4-.27-12.87,32.6-10.13-13.42,17.53-14.52h-14.52l-17.8,14.52,6.03-14.52h-21.37C14.24,29.04,6.57,47.94,6.57,47.94h0Z"/></svg>