<svg xmlns="http://www.w3.org/2000/svg" viewBox="0 0 354.36 235.65"><defs><style>.a{fill:#294386;}.b{fill:#282826;}.c{fill:#9f7c3a;}.d{fill:#24a0ce;}.e{fill:#fffffe;}</style></defs><title>MV Agusta logo - Brandlogos.net</title><path class="a" d="M455.88,507.48l7.87-27.25A66.41,66.41,0,0,0,448,507.48Zm-9.23,32,1.52-5.27-2.43-.57C446,535.57,446.25,537.53,446.64,539.44Zm29.28-32H490l20.49-47.78a66.27,66.27,0,0,0-45.67,19.42Zm57.95,81.34a66.58,66.58,0,0,0,43.93-55.16l-20.18,4.74Zm-42.51-44.47-10.46,21.5-10.52-26.44-5.95-1.4-7.27,26a66.52,66.52,0,0,0,45.52,28l-3-45.66Zm23.73-19,11.63-11.64-3.62-53c-.87-.15-3.53-.61-6.18-.81-3-.22-5.9-.17-6.06-.17Zm13.78,19.84-12.32,2.89,2.84,44.1a66.15,66.15,0,0,0,12.51-2.68Zm45.28-41.88-2,4.2h3.35C575.11,506.06,574.66,504.66,574.16,503.28Zm-31.4,4.2L540.06,466a66.84,66.84,0,0,1,24.15,19.4l-10.39,22.06Z" transform="translate(-334.82 -394.17)"/><path class="b" d="M558.63,536.25l12.68-26.93L678,508.7H678ZM601.5,533l-10.76,3.48-.19,1.27a79.47,79.47,0,0,1-4.7,17.66l-.5,1.28,7.87,7.61a90.62,90.62,0,0,1-7.66,13.24l-10.51-3-.86,1.08a80.13,80.13,0,0,1-13,13l-1.08.85,3,10.49a90.6,90.6,0,0,1-13.25,7.66l-7.61-7.86-1.28.51a79.39,79.39,0,0,1-17.7,4.71l-1.37.2-2.66,10.64c-2.53.22-5.1.33-7.65.33s-5.11-.11-7.65-.33l-2.67-10.67L500,604.9a78.9,78.9,0,0,1-17.61-4.76l-1.29-.51-7.69,7.94a90.73,90.73,0,0,1-13.25-7.66l3.06-10.68-1.08-.86a80.14,80.14,0,0,1-9.32-8.78l3.65-13a68.46,68.46,0,0,0,46.39,27.51l.37,5.61,13.43-5.19a68.44,68.44,0,0,0,63.32-61.32l21.8-5.13C601.72,529.82,601.64,531.34,601.5,533Zm-152.84-.55L346,508.7l109.31.63Zm-2,7c-.39-1.92-.69-3.87-.91-5.85l2.43.57Zm-10.37,35.92a89.69,89.69,0,0,1-6.22-11.07l8.07-7.81-.5-1.28a79.22,79.22,0,0,1-4.64-17.4l-.19-1.27-11-3.59c-.15-1.8-.21-3.35-.23-5.05l22.05,5.19a68,68,0,0,0,1.88,10.42ZM490,507.48H475.92l-11.11-28.36a66.27,66.27,0,0,1,45.67-19.42Zm2.25,35,6.35-13.05,1,14.74Zm-15.55-33.07,12.43.07-6.48,15.12ZM464.94,536.2l1.72-6.15,2.87,7.21Zm-9.06-28.72H448a66.41,66.41,0,0,1,15.77-27.25ZM464.43,538l5.95,1.4,10.52,26.44,10.46-21.5,8.34,2,3,45.66a66.52,66.52,0,0,1-45.52-28Zm64.44,7.16,3,44.31a66.09,66.09,0,0,1-12.51,2.68l-2.84-44.1Zm-13.78-19.84-4.23-65.64c.16,0,3.09,0,6.06.17,2.65.2,5.31.66,6.18.81l3.62,53Zm11.81-8.9,1.83,26.72L516.43,546l-1.15-17.92Zm26.91-8.94H542.76L540.06,466a66.84,66.84,0,0,1,24.15,19.4Zm-10.93,2,10-.06L546.5,523c-.84,1.81-1.65,3.7-2.38,5.48Zm14.73,28.92,20.18-4.74a66.58,66.58,0,0,1-43.93,55.16Zm-120-41.47.51-1.28-8.09-7.82a89.82,89.82,0,0,1,7.66-13.23l10.8,3.08.86-1.08a80.14,80.14,0,0,1,12.75-12.77l1.08-.86-3.08-10.76a90.61,90.61,0,0,1,13.25-7.65l7.77,8,1.28-.51a79.55,79.55,0,0,1,17.49-4.71l1.36-.2,2.71-10.8c2.58-.22,5.14-.33,7.65-.33s5.07.11,7.65.33l2.7,10.78,1.37.2A79.07,79.07,0,0,1,540.91,452l1.28.51,7.71-8a90.23,90.23,0,0,1,13.24,7.65l-3,10.65,1.08.86a80.6,80.6,0,0,1,9.2,8.6l-5.17,11a68.74,68.74,0,0,0-25.31-19.64l-.56-8.66-12,4.4a68.5,68.5,0,0,0-81.49,48.09H434.35A79.67,79.67,0,0,1,437.64,496.94Zm136.52,6.35c.51,1.37,1,2.78,1.37,4.2h-3.35Zm12.64-26.83a90,90,0,0,1,6.43,11.38l-8,7.69.51,1.28a80.21,80.21,0,0,1,3.36,10.67H577.69a67.9,67.9,0,0,0-2.31-6.78Zm4.47,31A81.28,81.28,0,0,0,587.7,496l8-7.74a92,92,0,0,0-7.89-14l21.06-44.7-22.18,8.11-15.37,32.63a82.17,82.17,0,0,0-8.86-8.2l3.07-10.73a91.88,91.88,0,0,0-16.1-9.3l-7.77,8a80.74,80.74,0,0,0-18-4.81l-2.72-10.86c-3.06-.31-6.16-.47-9.3-.47s-6.24.16-9.3.47l-2.73,10.88a81.27,81.27,0,0,0-18,4.83l-7.83-8.08a92.15,92.15,0,0,0-16.11,9.3l3.11,10.85a82,82,0,0,0-13.08,13.1l-10.88-3.11a91.43,91.43,0,0,0-9.31,16.09l8.16,7.88a81.38,81.38,0,0,0-3.5,11.3h-97.4l84.64,19.93c0,2.47.11,4.49.38,7.09l11.1,3.61A81.17,81.17,0,0,0,435.7,556l-8.14,7.87a91.3,91.3,0,0,0,8,14.12l-15,51.88,20.24-7.39,11.35-40.52a82.17,82.17,0,0,0,8.68,8.07l-3.08,10.77a92.41,92.41,0,0,0,16.11,9.3l7.74-8a80.71,80.71,0,0,0,18.07,4.88l2.69,10.75a92.68,92.68,0,0,0,18.59,0L523.62,607a81.51,81.51,0,0,0,18.16-4.84l7.66,7.91a92.52,92.52,0,0,0,16.1-9.3l-3-10.57a82.14,82.14,0,0,0,13.3-13.29l10.58,3a91.66,91.66,0,0,0,9.31-16.09l-7.93-7.67A81.19,81.19,0,0,0,592.6,538l10.84-3.5c.25-2.55.35-4.57.38-7l85.36-20.07Z" transform="translate(-334.82 -394.17)"/><path class="c" d="M527.3,459.39l12-4.4.56,8.66a68.74,68.74,0,0,1,25.31,19.64l5.17-11a80.6,80.6,0,0,0-9.2-8.6l-1.08-.86,3-10.65a90.26,90.26,0,0,0-13.24-7.65l-7.71,8-1.28-.51a79,79,0,0,0-17.56-4.68l-1.37-.2-2.7-10.78c-2.57-.22-5.14-.33-7.65-.33s-5.07.11-7.65.33l-2.71,10.8-1.36.2a79.49,79.49,0,0,0-17.49,4.71l-1.28.51-7.77-8a90.63,90.63,0,0,0-13.25,7.65L463.2,463l-1.08.86a80.06,80.06,0,0,0-12.75,12.77l-.86,1.08-10.8-3.08a90,90,0,0,0-7.66,13.23l8.09,7.82-.51,1.28a79.67,79.67,0,0,0-3.29,10.54h11.46a68.5,68.5,0,0,1,81.49-48.08ZM516.62,594.48l-13.43,5.19-.37-5.61a68.46,68.46,0,0,1-46.39-27.51l-3.65,13a80.16,80.16,0,0,0,9.32,8.78l1.08.86-3.06,10.69a90.8,90.8,0,0,0,13.25,7.66l7.69-7.94,1.29.51A78.9,78.9,0,0,0,500,604.9l1.37.21L504,615.78c2.54.22,5.1.33,7.65.33s5.11-.11,7.65-.33L522,605.14l1.37-.2a79.39,79.39,0,0,0,17.7-4.71l1.28-.51,7.61,7.86a90.68,90.68,0,0,0,13.25-7.66l-3-10.49,1.08-.85a80.14,80.14,0,0,0,13-13l.86-1.08,10.51,3a90.54,90.54,0,0,0,7.66-13.24l-7.87-7.61.5-1.28a79.46,79.46,0,0,0,4.7-17.66l.19-1.27,1.23-.4L601.5,533c.14-1.66.21-3.17.24-5l-21.8,5.13A68.44,68.44,0,0,1,516.62,594.48Zm72.52-87a80.29,80.29,0,0,0-3.36-10.67l-.51-1.28,8-7.69a89.92,89.92,0,0,0-6.43-11.38L575.38,500.7a68,68,0,0,1,2.31,6.78ZM443.58,533.09a68,68,0,0,0,1.88,10.42l-9.2,31.85a89.69,89.69,0,0,1-6.22-11.07l8.07-7.81-.5-1.28a79.25,79.25,0,0,1-4.64-17.4l-.19-1.27-11-3.59c-.15-1.8-.21-3.35-.23-5.05Z" transform="translate(-334.82 -394.17)"/><path class="d" d="M546.5,523l6.4-13.58-10,.06,1.24,19C544.85,526.72,545.66,524.83,546.5,523Zm-57.38-13.49-12.43-.07,5.95,15.19Zm3.13,33,7.31,1.69-1-14.74Zm-22.71-5.25-2.87-7.21-1.72,6.15Zm45.74-9.19L516.43,546l12.31-2.85-1.83-26.72ZM346,508.71l102.64,23.74,6.67-23.11Zm332,0-119.4,27.54,12.68-26.93L678,508.71Z" transform="translate(-334.82 -394.17)"/><path class="e" d="M537.46,457.88l-12.18,4.45,8.36,122.12,71.23-151.21-16.66,6.09-39.84,84.56c-3,6.58-5.69,14.26-5.69,14.26Zm-71.14,65.73-27.25,97.25-15.42,5.63,41-142,17.87,45.65,26.76-62.41,8,124.31-12.25,4.74-4.92-75.19-19.06,39.18Z" transform="translate(-334.82 -394.17)"/><path class="a" d="M561,407.28l-4.9,6.75-1.47-.55a121.6,121.6,0,0,0-29.32-6.93l-1.63-.18-1.17-9.51s-7.16-.63-10.68-.63-10.69.63-10.69.63L500,406.38l-1.63.18A121.55,121.55,0,0,0,469,413.48l-1.47.55-4.9-6.75A134.67,134.67,0,0,0,446.74,415l11.34,31.09a96.1,96.1,0,0,1,107.47.21L577,415A135.18,135.18,0,0,0,561,407.28Z" transform="translate(-334.82 -394.17)"/><path class="c" d="M511.84,394.17a92.22,92.22,0,0,0-10.72.62l-1.82.21-1.16,9.5a122.83,122.83,0,0,0-29.82,7l-4.92-6.78a135.52,135.52,0,0,0-19.2,9.37L457,449.36a94,94,0,0,1,109.51.22l12.93-35.45a135.85,135.85,0,0,0-19.2-9.37l-4.92,6.78a122.82,122.82,0,0,0-29.82-7l-1.17-9.5-1.82-.21A92.27,92.27,0,0,0,511.84,394.17Zm0,2.06c3.51,0,10.68.63,10.68.63l1.17,9.51,1.63.18a121.66,121.66,0,0,1,29.32,6.93l1.47.55,4.9-6.75A135.34,135.34,0,0,1,576.95,415l-11.42,31.3a96.1,96.1,0,0,0-107.46-.21L446.72,415a134.27,134.27,0,0,1,15.94-7.77l4.9,6.75,1.47-.55a121.63,121.63,0,0,1,29.32-6.93l1.63-.18,1.16-9.51S508.32,396.24,511.84,396.24Z" transform="translate(-334.82 -394.17)"/><path class="e" d="M551.53,427.58l3.8,1.59,1-7.58Zm6.87,10.16-3.88-1.62.43-3.54-5.54-2.31-2.22,2.79-3.88-1.62,11.83-14.1,5,2.07Zm-16.57-21.2-3.49,13.61-3.91-1,3.49-13.61-4.67-1.19.87-3.4,13.25,3.39-.87,3.4ZM521.64,427.3a15.09,15.09,0,0,1-5.65-1.72l1-3A17.34,17.34,0,0,0,522,424c2.06.21,2.5-.14,2.66-1.61s.1-1.77-2.75-2.7c-4.22-1.36-4.78-2.27-4.39-6,.36-3.49,1.76-4.75,6.67-4.25a26.72,26.72,0,0,1,5.35,1.13l-.75,3.26a27.81,27.81,0,0,0-4.9-1c-1.8-.18-2.23.09-2.36,1.37-.17,1.68-.1,1.72,2.65,2.66,4.71,1.63,4.85,2.57,4.5,6S527,427.86,521.64,427.3ZM512,408.79l.67,12.43c.14,2.66-1.4,5.46-6.46,5.73s-6.89-2.35-7-5l-.67-12.43,4-.22.65,12.06c.08,1.42.82,2.2,2.84,2.1s2.67-1,2.59-2.39L508,409Zm-22.85,20.57c-4.25,1-6.9-.65-7.62-3.76l-1.66-7.14c-.73-3.16.94-5.74,5.18-6.73a32.43,32.43,0,0,1,5.71-.76l.31,3.48a42.41,42.41,0,0,0-5.21.78c-2,.46-2.23,1.57-1.92,2.91l1.37,5.89c.31,1.34,1.06,2.33,3,1.87a16.56,16.56,0,0,0,2.3-.7L489.42,420l3.7-.86,1.87,8A23.2,23.2,0,0,1,489.14,429.36Zm-21-.31,3.79-1.61-4.77-6Zm12.08,2.18-3.87,1.64-2.23-2.78-5.53,2.34.45,3.53-3.87,1.64-1.84-18.3,5-2.1Z" transform="translate(-334.82 -394.17)"/></svg>