<svg id="Layer_1" xmlns="http://www.w3.org/2000/svg" viewBox="0 0 453.61 404.95">
  <path 
    fill="currentColor" 
    fill-rule="evenodd"
    d="M226.8,404.95c3.51,0,6.87-.46,9.94-1.39,3.21-.94,6.25-2.42,9.05-4.38,2.69-1.89,5.15-4.19,7.53-7.05,2.21-2.62,4.25-5.64,6.32-9.23,0,0,186-324.27,187.55-327.13,1.57-2.85,2.88-5.81,3.9-8.79,1.01-3,1.73-6.01,2.12-8.97.42-3.06.5-6.07.23-8.92-.13-1.54-.78-6.23-2.76-10.46-1.96-4.17-4.18-6.79-6.98-9.42-2.8-2.63-7.88-5.52-12.11-6.9-2.38-.77-5.1-1.42-7.94-1.8-2.65-.36-5.59-.52-8.92-.52H38.88c-3.34,0-6.26.17-8.92.52-2.83.38-5.56,1.02-7.94,1.8-4.24,1.38-9.3,4.26-12.11,6.9-2.8,2.62-5.02,5.25-6.98,9.42C.93,22.86.29,27.56.16,29.09c-.26,2.85-.2,5.86.22,8.92.41,2.96,1.13,5.97,2.15,8.97,1,2.98,2.31,5.94,3.88,8.79,1.56,2.86,187.57,327.13,187.57,327.13,2.05,3.58,4.12,6.6,6.31,9.23,2.38,2.86,4.85,5.16,7.55,7.05,2.79,1.95,5.83,3.44,9.04,4.38,3.07.93,6.43,1.39,9.93,1.39
       M386.02,113.75 L373.22,136.06 L301.54,136.06 L356.68,164.9 L348.27,179.54 L301.54,153.79 L301.54,261.08 L279.19,300.04 L279.19,113.75 L386.02,113.75 Z
       M67.59,113.75 L80.39,136.06 L152.08,136.06 L96.93,164.9 L105.33,179.54 L152.08,153.79 L152.08,261.08 L174.42,300.04 L174.42,113.75 L67.59,113.75 Z
       M276.39,75.11 L276.39,34.39 L269.18,34.39 C266.5,34.39 265.55,35.73 263.83,38.15 L252.66,53.9 L240.32,34.39 L232.56,34.39 C229.98,34.39 229.6,36.73 229.6,38.12 L229.6,75.11 L238.49,75.11 L238.49,48.3 L250.52,66.34 L254.3,66.34 L266.93,48.4 L266.93,75.12 L276.39,75.11 Z
       M296.03,62.56 C297.44,62.56 302.5,62.4 307.24,60.31 C313.31,57.63 316.41,52.94 316.41,46.38 C316.41,42.77 314.97,34.39 301.54,34.39 L287.57,34.39 C284.99,34.39 284.59,36.73 284.59,38.11 L284.59,75.11 L295.42,75.11 L295.42,62.55 L296.04,62.55 L296.03,62.56 Z M295.42,55.78 L295.42,41.15 L299.12,41.15 C305.93,41.15 306.96,45.16 306.96,47.56 C306.96,55.41 297.85,55.8 296.02,55.8 L295.7,55.8 L295.42,55.78 Z
       M221.38,34.4 L213.52,34.4 C210.94,34.4 210.55,36.74 210.55,38.12 L210.55,60.06 C210.55,67.4 206.59,68.94 203.27,68.94 S195.98,67.39 195.98,60.06 L195.98,34.39 L188.11,34.39 C185.53,34.39 185.14,36.73 185.14,38.11 L185.14,60.88 C185.14,68.04 188.3,76.59 203.27,76.59 S221.38,68.04 221.38,60.88 L221.38,34.4 Z
       M166.12,75.12 L176.94,75.12 L176.94,34.4 L169.08,34.4 C166.51,34.4 166.12,36.73 166.12,38.12 L166.12,75.12 Z
       M361.06,75.11 L361.06,34.4 L353.19,34.4 C350.61,34.4 350.21,36.74 350.21,38.13 L350.21,44.93 L349.99,44.97 C344.99,45.93 339.95,47.85 334.54,50.85 L334.14,51.08 L334.14,34.39 L326.28,34.39 C323.69,34.39 323.32,36.73 323.32,38.12 L323.32,58.3 L323.21,58.37 C321.54,59.63 319.98,60.87 318.6,61.94 L318.26,62.21 C290.23,84.23 262.29,94.16 227.67,94.4 L226.57,94.4 C210.62,94.41 195.31,91.76 182.32,86.74 C167.18,80.89 155.74,72.19 148.31,60.85 L148.13,60.57 L148.44,60.43 C154.71,57.78 157.91,53.04 157.91,46.38 C157.91,42.79 156.46,34.39 143.03,34.39 L129.06,34.39 C126.49,34.39 126.09,36.74 126.09,38.12 L126.09,75.1 L137.04,75.1 L137.04,62.54 L137.32,62.54 C137.32,62.54 137.56,62.56 137.97,62.55 L138.1,62.55 L138.19,62.64 C152.44,79.72 179.54,100.09 227.67,100.09 C263.69,100.09 293.06,90.03 322.88,67.45 L323.33,67.12 L323.33,75.09 L334.15,75.09 L334.15,59.24 L334.29,59.17 C340.07,55.43 345.02,53.34 349.9,52.6 L350.21,52.56 L350.21,75.1 L361.06,75.11 Z M137.62,55.8 L137.04,55.8 L137.04,41.16 L140.6,41.16 C147.42,41.16 148.44,45.17 148.44,47.57 C148.44,55.41 139.43,55.8 137.61,55.8 L137.62,55.8 Z
       M121.17,34.4 L87.32,34.4 C84.92,34.4 84.41,36.43 84.41,38.12 L84.41,44.08 L97.31,44.08 L97.31,75.13 L108.2,75.13 L108.2,44.08 L118.21,44.08 C120.79,44.08 121.17,41.74 121.17,40.35 L121.17,34.4 Z"
  />
</svg>