<?xml version="1.0" encoding="UTF-8"?><svg id="uuid-30cf38ca-2907-4748-9dc8-a661ba2d141c" xmlns="http://www.w3.org/2000/svg" xmlns:xlink="http://www.w3.org/1999/xlink" viewBox="0 0 566.93 119.96">
<title>Yamaha Motorcycles logo - Brandlogos.net</title><defs><radialGradient id="uuid-5cb6e63c-cbd9-409c-a48b-ba026d062dc8" cx="28.36" cy="15.64" fx="28.36" fy="15.64" r="86.24" gradientUnits="userSpaceOnUse"><stop offset="0" stop-color="#f5dfd6"/><stop offset="1" stop-color="#b5121b"/></radialGradient><linearGradient id="uuid-602c4cca-15a0-468d-86ee-bcafb94142e1" x1="27.54" y1="13.66" x2="92.42" y2="106.31" gradientUnits="userSpaceOnUse"><stop offset="0" stop-color="#fff"/><stop offset=".16" stop-color="#fbfbfc"/><stop offset=".28" stop-color="#f1f2f2"/><stop offset=".4" stop-color="#e0e1e2"/><stop offset=".51" stop-color="#c9cbcc"/><stop offset=".52" stop-color="#c5c7c9"/><stop offset=".53" stop-color="#c9cbcc"/><stop offset=".58" stop-color="#e0e1e2"/><stop offset=".63" stop-color="#f1f2f2"/><stop offset=".68" stop-color="#fbfbfc"/><stop offset=".75" stop-color="#fff"/><stop offset=".82" stop-color="#fbfbfc"/><stop offset=".88" stop-color="#f1f2f2"/><stop offset=".94" stop-color="#e0e1e2"/><stop offset=".99" stop-color="#c9cbcc"/><stop offset="1" stop-color="#c5c7c9"/></linearGradient></defs><path d="M119.96,59.98c0,33.13-26.85,59.98-59.98,59.98S0,93.11,0,59.98,26.85,0,59.98,0s59.98,26.85,59.98,59.98Z" style="fill:url(#uuid-5cb6e63c-cbd9-409c-a48b-ba026d062dc8);"/><path d="M59.98,4.52C28.75,4.52,3.43,29.83,3.43,61.07s25.32,56.55,56.55,56.55,56.55-25.32,56.55-56.55S91.21,4.52,59.98,4.52ZM104.74,89.43l.06.02-6.51-1.52c-8.47,12.05-22.47,19.93-38.31,19.93s-29.85-7.88-38.31-19.93l-6.51,1.52.06-.02c-.75.21-1.79.02-2.33-.91-.54-.93-.18-1.93.38-2.47l-.04.04,4.53-4.84c-2.93-6.11-4.57-12.96-4.57-20.19,0-24.45,18.75-44.52,42.66-46.61l2.2-7.23-.02.06c.19-.75.88-1.56,1.95-1.56s1.76.81,1.95,1.56l-.02-.06,2.2,7.23c23.91,2.09,42.66,22.16,42.66,46.61,0,7.23-1.64,14.08-4.57,20.19l4.53,4.84-.04-.04c.36.35.64.9.64,1.5,0,.32-.08.65-.26.97-.54.93-1.58,1.12-2.33.91ZM94.63,75.01c-5.01,1.7-7.61-.43-8.45-4.88-.84-4.45-4.69-6.32-4.69-6.32l-4.52-2.58,22.04-12.9-2.29-3.96-24.29,14.28-3.93-2.24.03-4.51,24.52-13.9-2.29-3.96-22.2,12.64.04-6.45s.3-4.28-3.13-7.23c-3.43-2.95-3.97-6.26,0-9.76l-4.76-15.66s-.15-.6-.72-.6-.72.6-.72.6l-4.76,15.66c3.97,3.49,3.43,6.81,0,9.76-3.43,2.95-3.13,7.23-3.13,7.23l.04,6.45-22.2-12.64-2.29,3.96,24.52,13.9.03,4.51-3.93,2.24-24.29-14.28-2.29,3.96,22.04,12.9-4.53,2.58s-3.85,1.88-4.69,6.32c-.84,4.45-3.44,6.57-8.45,4.88l-11.18,11.95s-.45.43-.16.93c.29.5.88.33.88.33l15.94-3.71c1.04-5.19,4.18-6.37,8.45-4.88,4.27,1.5,7.82-.9,7.82-.9l4.5-2.63.15,24.3h4.58l-.22-26.94,3.89-2.28,3.89,2.28-.21,26.94h4.58l.15-24.3,4.5,2.63s3.55,2.4,7.82.9c4.27-1.5,7.41-.31,8.45,4.88l15.94,3.71s.6.17.88-.33c.29-.49-.16-.93-.16-.93l-11.18-11.95ZM44.86,74.87c-1.99,1.15-4.53.47-5.68-1.52-1.15-1.99-.47-4.53,1.52-5.68l6.75-3.83,4.07,2.38.03,4.7-6.7,3.94ZM63.95,63.64l-3.97,2.33-3.97-2.33-.04-4.63,4-2.27,4,2.27-.04,4.63ZM64.06,49.24l-4.08,2.33-4.08-2.33-.07-9c0-2.29,1.86-4.16,4.16-4.16s4.16,1.86,4.16,4.16l-.07,9ZM80.78,73.34c-1.15,1.99-3.69,2.67-5.68,1.52l-6.7-3.94.03-4.7,4.07-2.38,6.75,3.83c1.99,1.15,2.67,3.69,1.52,5.68Z" style="fill:#231f20;"/><path d="M59.98,3.43C28.75,3.43,3.43,28.75,3.43,59.98s25.32,56.55,56.55,56.55,56.55-25.32,56.55-56.55S91.21,3.43,59.98,3.43ZM104.74,88.34l.06.02-6.51-1.52c-8.47,12.05-22.47,19.93-38.31,19.93s-29.85-7.87-38.31-19.93l-6.51,1.52.06-.02c-.75.21-1.79.02-2.33-.91-.54-.93-.18-1.93.38-2.47l-.04.04,4.53-4.84c-2.93-6.11-4.57-12.96-4.57-20.19,0-24.45,18.75-44.52,42.66-46.61l2.2-7.23-.02.06c.19-.75.88-1.56,1.95-1.56s1.76.81,1.95,1.56l-.02-.06,2.2,7.23c23.91,2.09,42.66,22.16,42.66,46.61,0,7.23-1.64,14.08-4.57,20.19l4.53,4.84-.04-.04c.36.35.64.9.64,1.5,0,.32-.08.65-.26.97-.54.93-1.58,1.12-2.33.91ZM94.63,73.93c-5.01,1.7-7.61-.43-8.45-4.88-.84-4.45-4.69-6.32-4.69-6.32l-4.52-2.58,22.04-12.9-2.29-3.96-24.29,14.28-3.93-2.24.03-4.51,24.52-13.9-2.29-3.96-22.2,12.64.04-6.45s.3-4.28-3.13-7.23c-3.43-2.95-3.97-6.26,0-9.76l-4.76-15.66s-.15-.6-.72-.6-.72.6-.72.6l-4.76,15.66c3.97,3.49,3.43,6.81,0,9.76-3.43,2.95-3.13,7.23-3.13,7.23l.04,6.45-22.2-12.64-2.29,3.96,24.52,13.9.03,4.51-3.93,2.24-24.29-14.28-2.29,3.96,22.04,12.9-4.53,2.58s-3.85,1.88-4.69,6.32c-.84,4.45-3.44,6.57-8.45,4.88l-11.18,11.95s-.45.43-.16.93c.29.5.88.33.88.33l15.94-3.71c1.04-5.19,4.18-6.37,8.45-4.88,4.27,1.5,7.82-.9,7.82-.9l4.5-2.63.15,24.3h4.58l-.22-26.94,3.89-2.28,3.89,2.28-.21,26.94h4.58l.15-24.3,4.5,2.63s3.55,2.4,7.82.9c4.27-1.5,7.41-.31,8.45,4.88l15.94,3.71s.6.17.88-.33c.29-.49-.16-.93-.16-.93l-11.18-11.95ZM44.86,73.78c-1.99,1.15-4.53.47-5.68-1.52-1.15-1.99-.47-4.53,1.52-5.68l6.75-3.83,4.07,2.38.03,4.7-6.7,3.94ZM63.95,62.55l-3.97,2.33-3.97-2.33-.04-4.63,4-2.27,4,2.27-.04,4.63ZM64.06,48.15l-4.08,2.33-4.08-2.33-.07-9c0-2.29,1.86-4.16,4.16-4.16s4.16,1.86,4.16,4.16l-.07,9ZM80.78,72.26c-1.15,1.99-3.69,2.67-5.68,1.52l-6.7-3.94.03-4.7,4.07-2.38,6.75,3.83c1.99,1.15,2.67,3.69,1.52,5.68Z" style="fill:url(#uuid-602c4cca-15a0-468d-86ee-bcafb94142e1);"/><path d="M164.77,11.56l-11.47,31.77-11.47-31.77h-21.68l22.94,62.45v34.39h20.42v-34.39l22.94-62.45h-21.68ZM204.51,11.56l-24.03,96.84h21.32l3.22-15h22.65l3.22,15h21.32l-24.03-96.84h-23.67ZM209.41,72.99l6.94-32.34,6.94,32.34h-13.88ZM368.02,11.56l-24.03,96.84h21.32l3.22-15h22.65l3.22,15h21.32l-24.03-96.84h-23.67ZM372.91,72.99l6.94-32.34,6.94,32.34h-13.88ZM542.9,11.56h-23.67l-24.03,96.84h21.32l3.22-15h22.65l3.22,15h21.32l-24.03-96.84ZM524.13,72.99l6.94-32.34,6.94,32.34h-13.88ZM297.38,59.3l-8.13-47.74h-25.84v96.84h18.43v-53.44l9.75,53.44h11.56l9.76-53.44v53.44h18.43V11.56h-25.83l-8.13,47.74ZM463.41,48.06h-16.26V11.56h-20.23v96.84h20.23v-36.49h16.26v36.49h20.24V11.56h-20.24v36.5Z" style="fill:#b5121b;"/></svg>